<svg xmlns="http://www.w3.org/2000/svg" viewBox="-1520 4596 496.158 496.153">
  <defs>
    <style>
      .cls-1 {
        fill: none;
      }

      .cls-2 {
        fill: #dbbb00;
      }

      .cls-3 {
        fill: #d5d6c9;
      }

      .cls-4 {
        opacity: 0.5;
      }

      .cls-5 {
        fill: #bfbfbe;
      }

      .cls-6 {
        fill: #8e8e8e;
      }

      .cls-7 {
        fill: #d6e2d3;
      }

      .cls-8 {
        fill: #818281;
      }

      .cls-9 {
        fill: #a5a5a5;
      }

      .cls-10 {
        fill: #bdc1bc;
      }

      .cls-11 {
        fill: #afb2ad;
      }

      .cls-12 {
        fill: #c0c9bd;
      }

      .cls-13 {
        fill: #dfeadc;
      }

      .cls-14 {
        fill: #e5eae4;
      }

      .cls-15 {
        fill: #9b9a8c;
      }

      .cls-16 {
        fill: #8e8d85;
      }

      .cls-17 {
        fill: #b8bcb7;
      }
    </style>
  </defs>
  <g id="people" transform="translate(-1520 4595.998)">
    <path id="Path_383" data-name="Path 383" class="cls-1" d="M248.082,0C111.07,0,0,111.062,0,248.085c0,137,111.07,248.07,248.082,248.07s248.076-111.069,248.076-248.07C496.158,111.062,385.088,0,248.082,0Z"/>
    <g id="Group_48" data-name="Group 48">
      <path id="Path_384" data-name="Path 384" class="cls-2" d="M130.14,198.864l-17.811-.628-5.6-16.378-5.6,16.378-17.811.628L97.68,208.879l-5.413,17.5,14.466-10.923L121.2,226.38l-5.412-17.5Z"/>
      <path id="Path_385" data-name="Path 385" class="cls-2" d="M112.416,202.888l3.068-11.641-9.7,7.134-10.523-6.5,4.19,11.413L89.618,211.3l12.55-.471,4.18,11.844,3.832-12.1,12.154-.3Z"/>
      <path id="Path_386" data-name="Path 386" class="cls-2" d="M357.01,69.5,339.2,68.872l-5.6-16.377-5.6,16.377L310.2,69.5,324.55,79.515l-5.412,17.5L333.6,86.093l14.466,10.924-5.412-17.5Z"/>
      <path id="Path_387" data-name="Path 387" class="cls-2" d="M339.286,73.524l3.068-11.641-9.7,7.135-10.523-6.5,4.19,11.412-9.837,8.012,12.55-.47,4.18,11.843L337.05,81.22l12.154-.3Z"/>
    </g>
    <path id="Path_388" data-name="Path 388" class="cls-3" d="M248.079,346.078c-134.544,0-215.647,24.7-215.647,24.7a248.148,248.148,0,0,0,431.295,0S382.623,346.078,248.079,346.078Z"/>
    <g id="Group_49" data-name="Group 49" class="cls-4">
      <path id="Path_389" data-name="Path 389" class="cls-5" d="M337.239,391.542a32.809,32.809,0,0,1-4.551-9.686c-3.175-10.284-3.782-23.3-5.729-32.856-23.658-1.784-50.037-2.921-78.88-2.921-36.426,0-68.925,1.813-96.967,4.453,1.531,10.894,4.542,31.469,7.354,45.771,1.364,6.937,2.68,12.4,3.757,14.552,4.227,8.45,39.832,7.242,39.832,7.242s47.676-6.942,56.729-9.656,60.952,32.285,78.456,22.933S348.7,407.23,337.239,391.542Z"/>
    </g>
    <g id="Group_50" data-name="Group 50">
      <path id="Path_390" data-name="Path 390" class="cls-2" d="M429.005,224.007l-17.811-.628L405.6,207,400,223.379l-17.811.628,14.353,10.015-5.412,17.5L405.6,240.6l14.465,10.923-5.412-17.5Z"/>
      <path id="Path_391" data-name="Path 391" class="cls-2" d="M411.281,228.031l3.069-11.64-9.7,7.134-10.523-6.5,4.19,11.413-9.837,8.012,12.55-.47,4.18,11.843,3.832-12.094,12.154-.3Z"/>
    </g>
    <g id="Group_51" data-name="Group 51">
      <path id="Path_392" data-name="Path 392" class="cls-6" d="M224.939,357.915c-5.188-3.831-14.212-.407-20.161,7.647s-10.172,13.322-4.986,17.152,21.06.043,27.009-8.011S230.124,361.745,224.939,357.915Z"/>
      <path id="Path_393" data-name="Path 393" class="cls-6" d="M291.2,365.563c-5.947-8.054-14.973-11.478-20.16-7.647s-7.81,8.736-1.861,16.789,21.823,11.84,27.007,8.011S297.149,373.615,291.2,365.563Z"/>
    </g>
    <path id="Path_394" data-name="Path 394" class="cls-7" d="M289.519,313.188l-4.381-51.5h-74.3l-4.495,52.683s-1.283,51.462,1.382,53.026,15.53,1.525,19.016-.38,13.694-53.2,13.694-53.2l4.563-23.229s.688-6.823,3.206-6.823,3.088,6.708,3.088,6.708l4.123,22.659s9.554,52.013,13.212,53.917,18.485,2.044,20.767-.382S289.519,313.188,289.519,313.188Z"/>
    <g id="Group_52" data-name="Group 52">
      <path id="Path_395" data-name="Path 395" class="cls-8" d="M309.683,276.674l-.616,12.176s-.218,1.788-1.135,2.184c0,0,1.551-.1,1.82-2.33l.549-12.3Z"/>
      <path id="Path_396" data-name="Path 396" class="cls-8" d="M307.048,274.824l-3.982,11.6s-.53,1.871-1.6,2.025a2.783,2.783,0,0,0,2.7-1.72l4.019-11.557Z"/>
    </g>
    <path id="Path_397" data-name="Path 397" class="cls-9" d="M319.414,281.852s-1.444-6.33-1.771-7.59l-.38-7.548a113.107,113.107,0,0,1-12.181-3.254s-2.863,4.239-3.61,4.634-2.28,3.445-5.035,6.85l.006,0c-1.585,1.116-3.328,2.62-2.976,3.646a3.71,3.71,0,0,0,3.106,2.157,1.757,1.757,0,0,0,1.543-.4l2.353-2.007,1.692-2.581-2.974,7.247-1.429,2.526a1.33,1.33,0,0,0,.1,1.324c.948,1.352,3.573,1.6,3.573,1.6,2.293-.179,4.682-9.721,4.682-9.721s.412-1.088.87-2.434l-.1.958-3.37,11.491a1.73,1.73,0,0,0,.461,1.317c1.27,1.208,3.821,1.022,3.821,1.022,1.98-.443,1.75-6.694,1.75-6.694s.158-4.947.5-7.78l-.139,5.5-.176,6.389a1.807,1.807,0,0,0,.664,1.288,5.118,5.118,0,0,0,3.7.594c.888-.35,1.163-1.787,1.2-3.261a2.336,2.336,0,0,0,.8,1.213,4.235,4.235,0,0,0,3.37.377C321.3,287.792,319.414,281.852,319.414,281.852Zm-4.3,2.28,0,.033v.026C315.119,284.172,315.116,284.15,315.116,284.132Z"/>
    <path id="Path_398" data-name="Path 398" class="cls-8" d="M314.251,276.4l.916,11.682s-.1,1.807-.979,2.243c0,0,1.53-.162,1.648-2.417Z"/>
    <path id="Path_399" data-name="Path 399" class="cls-10" d="M297.943,265.586l1.373,2.4,18.539-1.03.515-3.09S302.922,262.152,297.943,265.586Z"/>
    <g id="Group_53" data-name="Group 53">
      <path id="Path_400" data-name="Path 400" class="cls-8" d="M187.091,288.85l-.615-12.176-.619-.274.551,12.3c.268,2.23,1.818,2.33,1.818,2.33C187.308,290.638,187.091,288.85,187.091,288.85Z"/>
      <path id="Path_401" data-name="Path 401" class="cls-8" d="M193.094,286.421l-3.983-11.6-1.134.345L192,286.726a2.784,2.784,0,0,0,2.7,1.72C193.624,288.292,193.094,286.421,193.094,286.421Z"/>
    </g>
    <path id="Path_402" data-name="Path 402" class="cls-9" d="M199.715,274.947l.006,0c-2.755-3.4-4.287-6.456-5.035-6.85s-3.609-4.634-3.609-4.634a113.041,113.041,0,0,1-12.181,3.254l-.38,7.548c-.326,1.26-1.771,7.59-1.771,7.59s-1.886,5.94-.042,6.862a4.233,4.233,0,0,0,3.369-.377,2.33,2.33,0,0,0,.8-1.213c.036,1.474.311,2.911,1.2,3.261a5.117,5.117,0,0,0,3.7-.594,1.813,1.813,0,0,0,.666-1.288l-.177-6.389-.139-5.5c.343,2.833.5,7.78.5,7.78s-.23,6.251,1.75,6.694c0,0,2.552.186,3.82-1.022a1.735,1.735,0,0,0,.462-1.317l-3.37-11.491-.1-.958c.457,1.346.871,2.434.871,2.434s2.387,9.542,4.68,9.721c0,0,2.625-.247,3.573-1.6a1.327,1.327,0,0,0,.1-1.324l-1.429-2.526L194,275.76l1.691,2.581,2.353,2.007a1.756,1.756,0,0,0,1.542.4,3.709,3.709,0,0,0,3.106-2.157C203.043,277.566,201.3,276.063,199.715,274.947Zm-18.677,9.243v-.026l.005-.033C181.042,284.15,181.039,284.172,181.038,284.19Z"/>
    <path id="Path_403" data-name="Path 403" class="cls-8" d="M180.991,288.082l.918-11.682-1.587,11.508c.118,2.255,1.65,2.417,1.65,2.417C181.088,289.889,180.991,288.082,180.991,288.082Z"/>
    <path id="Path_404" data-name="Path 404" class="cls-10" d="M177.788,263.869l.515,3.09,18.539,1.03,1.374-2.4C193.236,262.152,177.788,263.869,177.788,263.869Z"/>
    <path id="Path_405" data-name="Path 405" class="cls-11" d="M280.7,118.212h-65.02c-5.319,0-9.632,3.912-9.632,8.737v58.984c0,4.826,4.313,8.738,9.632,8.738H280.7c5.319,0,9.633-3.912,9.633-8.738V126.949C290.33,122.123,286.017,118.212,280.7,118.212Z"/>
    <path id="Path_406" data-name="Path 406" class="cls-12" d="M280.7,121.411h-65.02a9.633,9.633,0,0,0-9.632,9.632v65.02a9.633,9.633,0,0,0,9.632,9.632H280.7a9.634,9.634,0,0,0,9.633-9.632v-65.02A9.633,9.633,0,0,0,280.7,121.411Z"/>
    <g id="Group_54" data-name="Group 54">
      <path id="Path_407" data-name="Path 407" class="cls-13" d="M297.19,176.456c-1.991-12.726-26.605-19.838-47.432-19.838h-3.143c-20.828,0-46.006,7.907-47.432,19.838-1.075,9,.089,33.277.729,44.651a74.416,74.416,0,0,0,96.637-.043C297.32,209.811,298.683,186.015,297.19,176.456Z"/>
      <path id="Path_408" data-name="Path 408" class="cls-13" d="M301.1,176.456c-1.989-12.726-30.6-19.838-51.428-19.838h-3.143c-20.826,0-50.088,7.907-51.515,19.838-1.075,9,15.241,73.86,15.734,85.233,0,0,17.529,5.667,35.538,5.667,18.033,0,39.218-5.709,39.218-5.709C286.1,250.4,302.594,186.015,301.1,176.456Z"/>
    </g>
    <path id="Path_409" data-name="Path 409" class="cls-7" d="M248.187,110.831c-17.873,0-32.361,11.863-32.361,28.361,0,26.316,14.488,33.784,32.361,33.784s32.361-7.468,32.361-33.784C280.549,122.694,266.06,110.831,248.187,110.831Z"/>
    <path id="Path_410" data-name="Path 410" class="cls-14" d="M248.187,110.831c-17.873,0-32.361,11.863-32.361,28.361,0,12.4,3.217,20.617,8.49,25.838l47.77-45.293C266.168,114.159,257.652,110.831,248.187,110.831Z"/>
    <path id="Path_411" data-name="Path 411" class="cls-15" d="M248.187,121.411c-14.1,0-25.525,8.325-25.525,21.338,0,22.759,11.429,28.184,25.525,28.184s25.523-5.424,25.523-28.184C273.711,129.736,262.284,121.411,248.187,121.411Z"/>
    <path id="Path_412" data-name="Path 412" class="cls-16" d="M264.7,126.076l-36.819,36.819c4.664,6.163,12.024,8.037,20.309,8.037,14.1,0,25.523-5.424,25.523-28.184A19.616,19.616,0,0,0,264.7,126.076Z"/>
    <g id="Group_55" data-name="Group 55">
      <path id="Path_413" data-name="Path 413" class="cls-17" d="M223.023,192.745l-12.359,33.416-4.119,12.589c.295.119,4.348-8.239,6.409-11.9C216.957,217.235,226.226,196.179,223.023,192.745Z"/>
      <path id="Path_414" data-name="Path 414" class="cls-17" d="M285.713,226.161l-12.36-33.416c-3.2,3.434,6.066,24.49,10.07,34.1,2.063,3.663,6.114,12.021,6.41,11.9Z"/>
    </g>
    <g id="Group_56" data-name="Group 56">
      <path id="Path_415" data-name="Path 415" class="cls-13" d="M318.37,244.186c-4.119-43.945-17.872-70.094-17.872-70.094l-26.206,20.713s2.478,7.658,8.239,24.948c2.52,7.554,10.091,25.005,11.921,30.27.844,2.422,3.491,15.563,3.491,15.563a46.131,46.131,0,0,1,12.838-1.259c5.95.458,7.57.171,7.57.171C319.725,255.115,318.37,244.186,318.37,244.186Z"/>
      <path id="Path_416" data-name="Path 416" class="cls-13" d="M195.939,174.092s-14.089,26.378-18.208,70.323a82.371,82.371,0,0,0,0,19.684l7.438-.572c6.09-.469,13.046,2.06,13.046,2.06s2.591-12.913,3.433-15.335c1.832-5.264,9.741-22.944,12.259-30.5,5.764-17.29,8.24-24.948,8.24-24.948Z"/>
    </g>
  </g>
</svg>
