<svg xmlns="http://www.w3.org/2000/svg" viewBox="-556 -1583 165 165">
  <defs>
    <style>
      .cls-1 {
        opacity: 0.503;
      }

      .cls-2 {
        fill: #fff;
      }

      .cls-3 {
        fill: lime;
      }

      .cls-4 {
        fill: #4384ec;
      }

      .cls-5 {
        fill: #2c6cd3;
      }

      .cls-6 {
        fill: #2a63d8;
      }

      .cls-7 {
        fill: #f2f2f2;
      }

      .cls-8 {
        fill: #cad8ef;
      }
    </style>
  </defs>
  <g id="Group_88" data-name="Group 88" class="cls-1" transform="translate(-2023.66 -1712)">
    <g id="planet_4_" data-name="planet (4)" transform="translate(1467.66 129)">
      <g id="XMLID_346_" transform="translate(41.961 41.986)">
        <path id="Path_328" data-name="Path 328" class="cls-2" d="M194.546,224.554a29.99,29.99,0,1,1,29.972-29.991A30.015,30.015,0,0,1,194.546,224.554Zm0-53.982a23.992,23.992,0,1,0,23.977,23.992A24.012,24.012,0,0,0,194.546,170.571Z" transform="translate(-164.574 -164.573)"/>
      </g>
      <path id="Path_329" data-name="Path 329" class="cls-2" d="M211.62,160.7a50.949,50.949,0,1,0-28.15,45.6,11.987,11.987,0,0,0,17.906-14.938A51.162,51.162,0,0,0,211.62,160.7Zm-95.91,0a44.958,44.958,0,1,1,89.916,0,44.465,44.465,0,0,1-8.3,26.036,11.987,11.987,0,0,0-17.673,14.747A44.966,44.966,0,0,1,115.71,160.7Zm74.93,41.986a6,6,0,1,1,5.994-6A6,6,0,0,1,190.64,202.685Z" transform="translate(-88.735 -88.722)"/>
      <g id="XMLID_323_" transform="translate(57.443 57.374)">
        <ellipse id="Ellipse_50" data-name="Ellipse 50" class="cls-3" cx="14.42" cy="14.428" rx="14.42" ry="14.428"/>
      </g>
      <path id="Path_330" data-name="Path 330" class="cls-2" d="M126.79,54.858A71.99,71.99,0,0,0,63.584,161.205a11.987,11.987,0,0,0,14.361,18.467A71.955,71.955,0,1,0,126.79,54.858ZM66.846,168.82a5.995,5.995,0,1,1,5.995,6A6,6,0,0,1,66.846,168.82Zm59.944,23.992a65.55,65.55,0,0,1-44.2-17.023,11.983,11.983,0,0,0-14.116-18.137,65.94,65.94,0,1,1,58.317,35.16Z" transform="translate(-54.857 -54.858)"/>
    </g>
    <g id="globe" transform="translate(1592.149 253.49)">
      <circle id="Ellipse_192" data-name="Ellipse 192" class="cls-4" cx="14.352" cy="14.352" r="14.352" transform="translate(0 21.554) rotate(-48.669)"/>
      <path id="Path_639" data-name="Path 639" class="cls-5" d="M155.146,81.668a14.313,14.313,0,0,0-4.606-2.726q.284.225.559.467a14.355,14.355,0,0,1-14.349,24.282,14.352,14.352,0,0,0,18.4-22.023Z" transform="translate(-125.413 -72.193)"/>
      <path id="Path_640" data-name="Path 640" class="cls-2" d="M292.355,178.974l-.317.18a.43.43,0,0,1-.5-.051l-.045-.04a.43.43,0,0,1,.128-.724l.362-.141a.43.43,0,0,1,.56.253h0A.431.431,0,0,1,292.355,178.974Z" transform="translate(-268.732 -164.18)"/>
      <path id="Path_641" data-name="Path 641" class="cls-2" d="M62.3,75.359l1.091-.314.345.131a.687.687,0,0,0,.9-.852l-.063-.2,1.975-2a.756.756,0,0,1,1.118.047h0a.756.756,0,0,1-.258,1.167l-.195.092a.626.626,0,0,0-.223.955l.351.442a.626.626,0,0,1,.081.645l-.574,1.281a.687.687,0,0,1-.843.654l-.6-.139a8.152,8.152,0,0,0-3.506-.042l-.208.043a14.407,14.407,0,0,0-.307,5.081l1.249,1.1a.329.329,0,0,0,.518-.379l-.236-.539a.329.329,0,0,1-.023-.187l.329-1.944a1.612,1.612,0,0,1,2.11-.414l1.254.745a2.171,2.171,0,0,0,.495.025l.757-.049a1.741,1.741,0,0,0,1.489-1.052l.643-1.5a.894.894,0,0,0-.044-.793h0a.894.894,0,0,1-.028-.828l.662-1.379a.893.893,0,0,1,.328-.368l.564-.357a1,1,0,0,0,.125-1.587l-.8-.7a1,1,0,0,1-.105-1.386l.868-1.034a.993.993,0,0,1,1.278-.209h0A.992.992,0,0,0,74.1,69.3l1.209-1.44s.266-.906.441-1.547a14.449,14.449,0,0,0-2.129.143l-.478.621a4.226,4.226,0,0,1-2.383,1.535l-.033.008a.993.993,0,0,1-1.224-.93h0a14.394,14.394,0,0,0-7.2,7.667Z" transform="translate(-55.459 -60.488)"/>
      <path id="Path_642" data-name="Path 642" class="cls-2" d="M161.681,260.41l.227,2.75,1.155,1.575-.006.045a1.067,1.067,0,0,1-1.249.9l-.042-.008a.382.382,0,0,0-.265.7l3.583,2.056a1.113,1.113,0,0,0,1,.053l.857-.377a1.286,1.286,0,0,1,1.173.07l1.83,1.082,0,0a.877.877,0,0,0,.8.049l1.749-.763a.834.834,0,0,0,.5-.71l.023-.361a.834.834,0,0,1,.814-.78l1.323-.028a1.529,1.529,0,0,0,.286-.033l.856-.184a1.519,1.519,0,0,0,1.081-.894l.987-2.337a.664.664,0,0,0,.015-.477l-.2-.585a.664.664,0,0,1,.3-.794h0a.664.664,0,0,1,.993.52l.05.594a.939.939,0,0,0,1.265.8l.757-.283a14.325,14.325,0,0,0,1.239-5.428l-.136-.154a2.418,2.418,0,0,0-2.749-.625l-2.689,1.588c-.756.344-.923,1-1.179,1.5a2.009,2.009,0,0,0-.191.652.886.886,0,0,1-1.034.751l-.42-.075a.636.636,0,0,0-.609,1.023l.288.359a2.268,2.268,0,0,1,.5,1.352l.008.267a.747.747,0,0,1-.986.729,1.064,1.064,0,0,0-1.168.3l-.667.794a1.582,1.582,0,0,1-1.872-1.125l-.947-3.451a2.412,2.412,0,0,0-2.264-1.938l-.208-.008a1.164,1.164,0,0,1-1.028-.707l-.011-.027a1.216,1.216,0,0,0-1.853-.5l-1.4,1.063A1.214,1.214,0,0,0,161.681,260.41Z" transform="translate(-148.18 -236.887)"/>
      <path id="Path_643" data-name="Path 643" class="cls-2" d="M289.035,215.281a.94.94,0,0,1,.636,1.109c-.137.592-.336,1.281-.529,1.322-.158.033-.683.079-1.2.119a.941.941,0,0,1-1-1.1h0a.94.94,0,0,1,.327-.559l.871-.719a.941.941,0,0,1,.88-.173Z" transform="translate(-264.63 -198.539)"/>
      <path id="Path_644" data-name="Path 644" class="cls-6" d="M186.631,202.312a40.123,40.123,0,0,1-8.43,9.836,38.622,38.622,0,0,1-11.966,7.326,14.261,14.261,0,0,0,1.486.689,41.36,41.36,0,0,0,11.244-7.132,42.71,42.71,0,0,0,8.085-9.157A14.4,14.4,0,0,0,186.631,202.312Z" transform="translate(-152.747 -186.561)"/>
      <path id="Path_645" data-name="Path 645" class="cls-7" d="M276.757,257.416a2.418,2.418,0,0,0-2.749-.625l-1.487.627a14.363,14.363,0,0,1-9.693,11.116l1.231.728,0,0a.852.852,0,0,0,.777.058l1.769-.772a.834.834,0,0,0,.5-.71l.023-.361a.834.834,0,0,1,.814-.78l1.323-.028a1.511,1.511,0,0,0,.286-.034l.857-.184a1.519,1.519,0,0,0,1.081-.894l.987-2.337a.664.664,0,0,0,.015-.477l-.2-.585a.664.664,0,1,1,1.289-.274l.05.594a.939.939,0,0,0,1.265.8l.757-.283a14.322,14.322,0,0,0,1.239-5.428Z" transform="translate(-242.292 -236.888)"/>
      <g id="Group_87" data-name="Group 87" transform="translate(16.808 19.713)">
        <path id="Path_646" data-name="Path 646" class="cls-8" d="M339.022,256.8l-1.1.463c-.9,1.075-1.888,2.143-2.953,3.187a.884.884,0,0,1-.893.853q-.546.509-1.116,1.007l.23.287a2.264,2.264,0,0,1,.387.724,45.684,45.684,0,0,0,6.36-6.712A2.41,2.41,0,0,0,339.022,256.8Z" transform="translate(-324.114 -256.608)"/>
        <path id="Path_647" data-name="Path 647" class="cls-8" d="M216.794,375.847a39.287,39.287,0,0,1-5.056,3.077l.1.055a1.113,1.113,0,0,0,1,.053l.857-.377a1.286,1.286,0,0,1,.98-.023c1.036-.622,2.076-1.311,3.11-2.059A1.583,1.583,0,0,1,216.794,375.847Z" transform="translate(-211.738 -367.147)"/>
      </g>
    </g>
  </g>
</svg>
