<?xml version="1.0" standalone="no"?>
<!DOCTYPE svg PUBLIC "-//W3C//DTD SVG 20010904//EN"
 "http://www.w3.org/TR/2001/REC-SVG-20010904/DTD/svg10.dtd">
<svg version="1.0" xmlns="http://www.w3.org/2000/svg"
 width="512.000000pt" height="512.000000pt" viewBox="0 0 512.000000 512.000000"
 preserveAspectRatio="xMidYMid meet">
<metadata>
Created by potrace 1.11, written by Peter Selinger 2001-2013
</metadata>
<g transform="translate(0.000000,512.000000) scale(0.100000,-0.100000)"
fill="#000000" stroke="none">
<path d="M2330 4794 c-150 -14 -384 -68 -540 -124 -193 -70 -412 -190 -590
-323 -122 -92 -335 -305 -427 -427 -187 -250 -312 -510 -388 -805 -54 -212
-60 -265 -60 -555 0 -290 6 -343 60 -555 103 -400 294 -735 590 -1030 336
-337 712 -533 1210 -631 74 -15 142 -18 375 -18 233 0 301 3 375 18 498 98
874 294 1210 631 337 336 533 712 631 1210 15 74 18 142 18 375 0 233 -3 301
-18 375 -98 498 -295 874 -631 1210 -336 336 -735 544 -1212 631 -86 15 -495
28 -603 18z m400 -974 c31 -17 40 -42 70 -208 32 -173 67 -286 106 -345 32
-48 44 -107 22 -107 -22 0 -98 61 -137 110 -25 31 -47 83 -82 189 -26 80 -56
166 -68 191 -38 82 -25 130 44 168 25 14 23 14 45 2z m749 -103 c99 -65 108
-233 17 -305 -35 -27 -126 -46 -181 -37 -95 14 -145 77 -145 182 0 137 60 196
196 191 58 -3 78 -8 113 -31z m-1424 -362 c179 -60 314 -157 402 -289 78 -116
97 -172 97 -286 0 -85 -3 -103 -32 -168 -38 -88 -114 -216 -176 -296 -48 -61
-60 -112 -32 -135 8 -6 54 -31 103 -55 49 -24 106 -58 126 -76 119 -104 195
-330 168 -498 -27 -170 -132 -283 -324 -349 -75 -26 -94 -28 -227 -28 -162 1
-243 17 -399 80 -208 85 -311 171 -498 416 -212 277 -215 281 -220 332 -5 40
-2 49 21 72 62 62 115 10 312 -304 137 -220 235 -316 409 -402 146 -72 231
-92 395 -93 148 -1 200 12 274 69 128 98 176 335 99 498 -81 171 -245 266
-458 267 -74 0 -105 8 -105 26 0 7 42 55 93 106 110 110 240 281 294 386 33
66 38 84 38 147 0 101 -50 202 -149 300 -125 125 -273 185 -456 185 -185 0
-346 -58 -442 -158 -99 -104 -133 -200 -125 -356 7 -135 26 -187 96 -257 80
-80 144 -103 271 -96 147 7 228 47 358 177 71 70 96 120 96 192 1 47 -4 64
-29 100 -68 96 -174 130 -296 95 -168 -49 -239 -243 -116 -317 42 -26 27 -26
-22 0 -56 28 -81 64 -81 117 0 81 57 156 158 207 97 49 198 51 294 7 61 -29
97 -66 126 -129 20 -45 24 -64 19 -113 -7 -80 -41 -134 -151 -244 -136 -136
-242 -185 -399 -186 -164 -1 -267 49 -364 179 -64 85 -78 142 -78 308 l0 141
42 84 c70 142 150 223 288 291 178 89 429 111 600 53z m1700 -335 c121 -9 180
-8 241 1 109 16 114 13 114 -58 0 -82 -4 -85 -72 -68 -31 8 -150 31 -264 50
-186 31 -262 48 -287 62 -4 3 -2 12 5 20 9 11 24 14 58 9 25 -3 117 -10 205
-16z m-233 -412 c21 -17 66 -125 112 -273 63 -200 85 -229 267 -363 97 -71
149 -123 149 -146 0 -19 -56 -93 -79 -105 -42 -23 -70 -13 -99 32 -16 27 -49
57 -82 78 -71 45 -212 183 -238 234 -11 22 -36 94 -55 160 -20 66 -50 167 -67
225 -44 148 -44 154 5 161 64 10 70 10 87 -3z m-304 -27 c11 -7 10 -16 -6 -47
-47 -93 -80 -261 -89 -454 -10 -230 16 -378 109 -620 53 -139 52 -135 33 -154
-21 -21 -105 -22 -145 -1 -32 16 -38 33 -90 245 -72 294 -92 488 -71 683 14
128 54 293 77 318 24 26 154 48 182 30z"/>
</g>
</svg>
